# Blender 4.2.3 LTS
# www.blender.org
mtllib projeto-carro-roda.mtl
o Cylinder
v 0.932619 -0.265916 0.589170
v 1.099842 -0.265916 0.589170
v 0.932619 -0.316649 0.594167
v 1.099842 -0.316649 0.594167
v 0.932619 -0.365432 0.608965
v 1.099842 -0.365432 0.608965
v 0.932619 -0.410390 0.632996
v 1.099842 -0.410390 0.632996
v 0.932619 -0.449797 0.665336
v 1.099842 -0.449797 0.665336
v 0.932619 -0.482137 0.704743
v 1.099842 -0.482137 0.704743
v 0.932619 -0.506168 0.749702
v 1.099842 -0.506168 0.749702
v 0.932619 -0.520966 0.798485
v 1.099842 -0.520966 0.798485
v 0.932619 -0.525963 0.849217
v 1.099842 -0.525963 0.849217
v 0.932619 -0.520966 0.899950
v 1.099842 -0.520966 0.899950
v 0.932619 -0.506168 0.948733
v 1.099842 -0.506168 0.948733
v 0.932619 -0.482137 0.993692
v 1.099842 -0.482137 0.993692
v 0.932619 -0.449797 1.033098
v 1.099842 -0.449797 1.033098
v 0.932619 -0.410390 1.065439
v 1.099842 -0.410390 1.065439
v 0.932619 -0.365432 1.089469
v 1.099842 -0.365432 1.089469
v 0.932619 -0.316649 1.104268
v 1.099842 -0.316649 1.104268
v 0.932619 -0.265916 1.109264
v 1.099842 -0.265916 1.109264
v 0.932619 -0.215183 1.104268
v 1.099842 -0.215183 1.104268
v 0.932619 -0.166400 1.089469
v 1.099842 -0.166400 1.089469
v 0.932619 -0.121442 1.065439
v 1.099842 -0.121442 1.065439
v 0.932619 -0.082035 1.033098
v 1.099842 -0.082035 1.033098
v 0.932619 -0.049695 0.993692
v 1.099842 -0.049695 0.993692
v 0.932619 -0.025664 0.948733
v 1.099842 -0.025664 0.948733
v 0.932619 -0.010866 0.899950
v 1.099842 -0.010866 0.899950
v 0.932619 -0.005869 0.849217
v 1.099842 -0.005869 0.849217
v 0.932619 -0.010866 0.798485
v 1.099842 -0.010866 0.798485
v 0.932619 -0.025664 0.749702
v 1.099842 -0.025664 0.749702
v 0.932619 -0.049695 0.704743
v 1.099842 -0.049695 0.704743
v 0.932619 -0.082035 0.665336
v 1.099842 -0.082035 0.665336
v 0.932619 -0.121442 0.632996
v 1.099842 -0.121442 0.632996
v 0.932619 -0.166400 0.608965
v 1.099842 -0.166400 0.608965
v 0.932619 -0.215183 0.594167
v 1.099842 -0.215183 0.594167
v 1.099842 -0.306676 0.644305
v 1.099842 -0.265916 0.640290
v 1.099842 -0.225156 0.644305
v 1.099842 -0.185963 0.656194
v 1.099842 -0.149842 0.675501
v 1.099842 -0.118182 0.701483
v 1.099842 -0.092199 0.733144
v 1.099842 -0.072892 0.769264
v 1.099842 -0.061003 0.808458
v 1.099842 -0.056989 0.849217
v 1.099842 -0.061003 0.889977
v 1.099842 -0.072892 0.929170
v 1.099842 -0.092199 0.965291
v 1.099842 -0.118182 0.996951
v 1.099842 -0.149842 1.022934
v 1.099842 -0.185963 1.042241
v 1.099842 -0.225156 1.054130
v 1.099842 -0.265916 1.058145
v 1.099842 -0.306676 1.054130
v 1.099842 -0.345869 1.042241
v 1.099842 -0.381990 1.022934
v 1.099842 -0.413650 0.996951
v 1.099842 -0.439633 0.965291
v 1.099842 -0.458940 0.929170
v 1.099842 -0.470829 0.889977
v 1.099842 -0.474844 0.849217
v 1.099842 -0.470829 0.808458
v 1.099842 -0.458940 0.769264
v 1.099842 -0.439633 0.733144
v 1.099842 -0.413650 0.701483
v 1.099842 -0.381990 0.675501
v 1.099842 -0.345869 0.656194
v 1.074567 -0.306676 0.644305
v 1.074567 -0.265916 0.640290
v 1.074567 -0.345869 0.656194
v 1.074567 -0.225156 0.644305
v 1.074567 -0.185963 0.656194
v 1.074567 -0.149842 0.675501
v 1.074567 -0.118182 0.701483
v 1.074567 -0.092199 0.733144
v 1.074567 -0.072892 0.769264
v 1.074567 -0.061003 0.808458
v 1.074567 -0.056989 0.849217
v 1.074567 -0.061003 0.889977
v 1.074567 -0.072892 0.929170
v 1.074567 -0.092199 0.965291
v 1.074567 -0.118182 0.996951
v 1.074567 -0.149842 1.022934
v 1.074567 -0.185963 1.042241
v 1.074567 -0.225156 1.054130
v 1.074567 -0.265916 1.058145
v 1.074567 -0.306676 1.054130
v 1.074567 -0.345869 1.042241
v 1.074567 -0.381990 1.022934
v 1.074567 -0.413650 0.996951
v 1.074567 -0.439633 0.965291
v 1.074567 -0.458940 0.929170
v 1.074567 -0.470829 0.889977
v 1.074567 -0.474844 0.849217
v 1.074567 -0.470829 0.808458
v 1.074567 -0.458940 0.769264
v 1.074567 -0.439633 0.733144
v 1.074567 -0.413650 0.701483
v 1.074567 -0.381990 0.675501
v 1.086142 -0.195775 0.882874
v 1.086142 -0.336057 0.882874
v 1.086142 -0.195775 0.815561
v 1.086142 -0.336057 0.815561
v 1.053736 -0.195775 0.815561
v 1.053736 -0.195775 0.882874
v 1.053736 -0.336057 0.882874
v 1.053736 -0.336057 0.815561
v 1.086142 -0.232260 0.779076
v 1.086142 -0.232260 0.919359
v 1.086142 -0.299573 0.779076
v 1.086142 -0.299573 0.919359
v 1.053736 -0.299573 0.779076
v 1.053736 -0.232260 0.779076
v 1.053736 -0.232260 0.919359
v 1.053736 -0.299573 0.919359
vn -0.0000 -0.0980 -0.9952
vn -0.0000 -0.2903 -0.9569
vn -0.0000 -0.4714 -0.8819
vn -0.0000 -0.6344 -0.7730
vn -0.0000 -0.7730 -0.6344
vn -0.0000 -0.8819 -0.4714
vn -0.0000 -0.9569 -0.2903
vn -0.0000 -0.9952 -0.0980
vn -0.0000 -0.9952 0.0980
vn -0.0000 -0.9569 0.2903
vn -0.0000 -0.8819 0.4714
vn -0.0000 -0.7730 0.6344
vn -0.0000 -0.6344 0.7730
vn -0.0000 -0.4714 0.8819
vn -0.0000 -0.2903 0.9569
vn -0.0000 -0.0980 0.9952
vn -0.0000 0.0980 0.9952
vn -0.0000 0.2903 0.9569
vn -0.0000 0.4714 0.8819
vn -0.0000 0.6344 0.7730
vn -0.0000 0.7730 0.6344
vn -0.0000 0.8819 0.4714
vn -0.0000 0.9569 0.2903
vn -0.0000 0.9952 0.0980
vn -0.0000 0.9952 -0.0980
vn -0.0000 0.9569 -0.2903
vn -0.0000 0.8819 -0.4714
vn -0.0000 0.7730 -0.6344
vn -0.0000 0.6344 -0.7730
vn -0.0000 0.4714 -0.8819
vn -0.0000 0.2903 -0.9569
vn -0.0000 0.0980 -0.9952
vn -1.0000 -0.0000 -0.0000
vn 1.0000 -0.0000 -0.0000
vn -0.0000 1.0000 -0.0000
vn -0.0000 -1.0000 -0.0000
vn -0.0000 -0.0000 1.0000
vn -0.0000 -0.0000 -1.0000
vt 1.000000 0.500000
vt 1.000000 1.000000
vt 0.968750 1.000000
vt 0.968750 0.500000
vt 0.937500 1.000000
vt 0.937500 0.500000
vt 0.906250 1.000000
vt 0.906250 0.500000
vt 0.875000 1.000000
vt 0.875000 0.500000
vt 0.843750 1.000000
vt 0.843750 0.500000
vt 0.812500 1.000000
vt 0.812500 0.500000
vt 0.781250 1.000000
vt 0.781250 0.500000
vt 0.750000 1.000000
vt 0.750000 0.500000
vt 0.718750 1.000000
vt 0.718750 0.500000
vt 0.687500 1.000000
vt 0.687500 0.500000
vt 0.656250 1.000000
vt 0.656250 0.500000
vt 0.625000 1.000000
vt 0.625000 0.500000
vt 0.593750 1.000000
vt 0.593750 0.500000
vt 0.562500 1.000000
vt 0.562500 0.500000
vt 0.531250 1.000000
vt 0.531250 0.500000
vt 0.500000 1.000000
vt 0.500000 0.500000
vt 0.468750 1.000000
vt 0.468750 0.500000
vt 0.437500 1.000000
vt 0.437500 0.500000
vt 0.406250 1.000000
vt 0.406250 0.500000
vt 0.375000 1.000000
vt 0.375000 0.500000
vt 0.343750 1.000000
vt 0.343750 0.500000
vt 0.312500 1.000000
vt 0.312500 0.500000
vt 0.281250 1.000000
vt 0.281250 0.500000
vt 0.250000 1.000000
vt 0.250000 0.500000
vt 0.218750 1.000000
vt 0.218750 0.500000
vt 0.187500 1.000000
vt 0.187500 0.500000
vt 0.156250 1.000000
vt 0.156250 0.500000
vt 0.125000 1.000000
vt 0.125000 0.500000
vt 0.093750 1.000000
vt 0.093750 0.500000
vt 0.062500 1.000000
vt 0.062500 0.500000
vt 0.113655 0.113655
vt 0.142874 0.089675
vt 0.031250 1.000000
vt 0.031250 0.500000
vt 0.000000 1.000000
vt 0.000000 0.500000
vt 0.750000 0.490000
vt 0.796822 0.485388
vt 0.841844 0.471731
vt 0.883337 0.449553
vt 0.919706 0.419706
vt 0.949553 0.383337
vt 0.971731 0.341844
vt 0.985388 0.296822
vt 0.990000 0.250000
vt 0.985388 0.203178
vt 0.971731 0.158156
vt 0.949553 0.116663
vt 0.919706 0.080294
vt 0.883337 0.050447
vt 0.841844 0.028269
vt 0.796822 0.014612
vt 0.750000 0.010000
vt 0.703178 0.014612
vt 0.658156 0.028269
vt 0.616663 0.050447
vt 0.580294 0.080294
vt 0.550447 0.116663
vt 0.528269 0.158156
vt 0.514612 0.203178
vt 0.510000 0.250000
vt 0.514612 0.296822
vt 0.528269 0.341844
vt 0.550447 0.383337
vt 0.580294 0.419706
vt 0.616663 0.449553
vt 0.658156 0.471731
vt 0.703178 0.485388
vt 0.296822 0.485388
vt 0.250000 0.490000
vt 0.250000 0.442821
vt 0.287618 0.439116
vt 0.203178 0.485388
vt 0.212382 0.439116
vt 0.158156 0.471731
vt 0.176211 0.428144
vt 0.116663 0.449553
vt 0.142874 0.410325
vt 0.080294 0.419706
vt 0.113655 0.386345
vt 0.050447 0.383337
vt 0.089675 0.357126
vt 0.028269 0.341844
vt 0.071856 0.323789
vt 0.014612 0.296822
vt 0.060884 0.287618
vt 0.010000 0.250000
vt 0.057179 0.250000
vt 0.014612 0.203178
vt 0.060884 0.212382
vt 0.028269 0.158156
vt 0.071856 0.176210
vt 0.050447 0.116663
vt 0.089675 0.142874
vt 0.080294 0.080294
vt 0.116663 0.050447
vt 0.158156 0.028269
vt 0.176211 0.071856
vt 0.203178 0.014612
vt 0.212382 0.060884
vt 0.250000 0.010000
vt 0.250000 0.057179
vt 0.296822 0.014612
vt 0.287618 0.060884
vt 0.341844 0.028269
vt 0.323789 0.071856
vt 0.383337 0.050447
vt 0.357126 0.089675
vt 0.419706 0.080294
vt 0.386345 0.113655
vt 0.449553 0.116663
vt 0.410325 0.142874
vt 0.471731 0.158156
vt 0.428144 0.176210
vt 0.485388 0.203178
vt 0.439116 0.212382
vt 0.490000 0.250000
vt 0.442821 0.250000
vt 0.485388 0.296822
vt 0.439116 0.287618
vt 0.471731 0.341844
vt 0.428144 0.323789
vt 0.449553 0.383337
vt 0.410325 0.357126
vt 0.419706 0.419706
vt 0.386345 0.386345
vt 0.383337 0.449553
vt 0.357126 0.410325
vt 0.341844 0.471731
vt 0.323789 0.428144
vt 0.000000 0.000000
vt 1.000000 0.000000
s 0
usemtl Material.009
f 1/1/1 2/2/1 4/3/1 3/4/1
f 3/4/2 4/3/2 6/5/2 5/6/2
f 5/6/3 6/5/3 8/7/3 7/8/3
f 7/8/4 8/7/4 10/9/4 9/10/4
f 9/10/5 10/9/5 12/11/5 11/12/5
f 11/12/6 12/11/6 14/13/6 13/14/6
f 13/14/7 14/13/7 16/15/7 15/16/7
f 15/16/8 16/15/8 18/17/8 17/18/8
f 17/18/9 18/17/9 20/19/9 19/20/9
f 19/20/10 20/19/10 22/21/10 21/22/10
f 21/22/11 22/21/11 24/23/11 23/24/11
f 23/24/12 24/23/12 26/25/12 25/26/12
f 25/26/13 26/25/13 28/27/13 27/28/13
f 27/28/14 28/27/14 30/29/14 29/30/14
f 29/30/15 30/29/15 32/31/15 31/32/15
f 31/32/16 32/31/16 34/33/16 33/34/16
f 33/34/17 34/33/17 36/35/17 35/36/17
f 35/36/18 36/35/18 38/37/18 37/38/18
f 37/38/19 38/37/19 40/39/19 39/40/19
f 39/40/20 40/39/20 42/41/20 41/42/20
f 41/42/21 42/41/21 44/43/21 43/44/21
f 43/44/22 44/43/22 46/45/22 45/46/22
f 45/46/23 46/45/23 48/47/23 47/48/23
f 47/48/24 48/47/24 50/49/24 49/50/24
f 49/50/25 50/49/25 52/51/25 51/52/25
f 51/52/26 52/51/26 54/53/26 53/54/26
f 53/54/27 54/53/27 56/55/27 55/56/27
f 55/56/28 56/55/28 58/57/28 57/58/28
f 57/58/29 58/57/29 60/59/29 59/60/29
f 59/60/30 60/59/30 62/61/30 61/62/30
f 78/63/4 79/64/4 112/64/4 111/63/4
f 61/62/31 62/61/31 64/65/31 63/66/31
f 63/66/32 64/65/32 2/67/32 1/68/32
f 1/69/33 3/70/33 5/71/33 7/72/33 9/73/33 11/74/33 13/75/33 15/76/33 17/77/33 19/78/33 21/79/33 23/80/33 25/81/33 27/82/33 29/83/33 31/84/33 33/85/33 35/86/33 37/87/33 39/88/33 41/89/33 43/90/33 45/91/33 47/92/33 49/93/33 51/94/33 53/95/33 55/96/33 57/97/33 59/98/33 61/99/33 63/100/33
f 4/101/34 2/102/34 66/103/34 65/104/34
f 2/102/34 64/105/34 67/106/34 66/103/34
f 64/105/34 62/107/34 68/108/34 67/106/34
f 62/107/34 60/109/34 69/110/34 68/108/34
f 60/109/34 58/111/34 70/112/34 69/110/34
f 58/111/34 56/113/34 71/114/34 70/112/34
f 56/113/34 54/115/34 72/116/34 71/114/34
f 54/115/34 52/117/34 73/118/34 72/116/34
f 52/117/34 50/119/34 74/120/34 73/118/34
f 50/119/34 48/121/34 75/122/34 74/120/34
f 48/121/34 46/123/34 76/124/34 75/122/34
f 46/123/34 44/125/34 77/126/34 76/124/34
f 44/125/34 42/127/34 78/63/34 77/126/34
f 42/127/34 40/128/34 79/64/34 78/63/34
f 40/128/34 38/129/34 80/130/34 79/64/34
f 38/129/34 36/131/34 81/132/34 80/130/34
f 36/131/34 34/133/34 82/134/34 81/132/34
f 34/133/34 32/135/34 83/136/34 82/134/34
f 32/135/34 30/137/34 84/138/34 83/136/34
f 30/137/34 28/139/34 85/140/34 84/138/34
f 28/139/34 26/141/34 86/142/34 85/140/34
f 26/141/34 24/143/34 87/144/34 86/142/34
f 24/143/34 22/145/34 88/146/34 87/144/34
f 22/145/34 20/147/34 89/148/34 88/146/34
f 20/147/34 18/149/34 90/150/34 89/148/34
f 18/149/34 16/151/34 91/152/34 90/150/34
f 16/151/34 14/153/34 92/154/34 91/152/34
f 14/153/34 12/155/34 93/156/34 92/154/34
f 12/155/34 10/157/34 94/158/34 93/156/34
f 10/157/34 8/159/34 95/160/34 94/158/34
f 8/159/34 6/161/34 96/162/34 95/160/34
f 6/161/34 4/101/34 65/104/34 96/162/34
f 96/162/18 65/104/18 97/104/18 99/162/18
f 92/154/22 93/156/22 126/156/22 125/154/22
f 79/64/3 80/130/3 113/130/3 112/64/3
f 66/103/16 67/106/16 100/106/16 98/103/16
f 93/156/21 94/158/21 127/158/21 126/156/21
f 80/130/2 81/132/2 114/132/2 113/130/2
f 67/106/15 68/108/15 101/108/15 100/106/15
f 94/158/20 95/160/20 128/160/20 127/158/20
f 81/132/1 82/134/1 115/134/1 114/132/1
f 68/108/14 69/110/14 102/110/14 101/108/14
f 95/160/19 96/162/19 99/162/19 128/160/19
f 82/134/32 83/136/32 116/136/32 115/134/32
f 69/110/13 70/112/13 103/112/13 102/110/13
f 83/136/31 84/138/31 117/138/31 116/136/31
f 70/112/12 71/114/12 104/114/12 103/112/12
f 84/138/30 85/140/30 118/140/30 117/138/30
f 71/114/11 72/116/11 105/116/11 104/114/11
f 85/140/29 86/142/29 119/142/29 118/140/29
f 72/116/10 73/118/10 106/118/10 105/116/10
f 86/142/28 87/144/28 120/144/28 119/142/28
f 73/118/9 74/120/9 107/120/9 106/118/9
f 87/144/27 88/146/27 121/146/27 120/144/27
f 74/120/8 75/122/8 108/122/8 107/120/8
f 88/146/26 89/148/26 122/148/26 121/146/26
f 75/122/7 76/124/7 109/124/7 108/122/7
f 89/148/25 90/150/25 123/150/25 122/148/25
f 76/124/6 77/126/6 110/126/6 109/124/6
f 90/150/24 91/152/24 124/152/24 123/150/24
f 77/126/5 78/63/5 111/63/5 110/126/5
f 65/104/17 66/103/17 98/103/17 97/104/17
f 91/152/23 92/154/23 125/154/23 124/152/23
f 134/163/34 135/164/34 136/2/34 133/67/34
f 130/164/35 132/2/35 136/2/35 135/164/35
f 131/67/36 129/163/36 134/163/36 133/67/36
f 132/2/37 131/67/37 133/67/37 136/2/37
f 142/163/34 143/164/34 144/2/34 141/67/34
f 138/164/38 140/2/38 144/2/38 143/164/38
f 139/67/37 137/163/37 142/163/37 141/67/37
f 140/2/35 139/67/35 141/67/35 144/2/35
f 137/163/36 138/164/36 143/164/36 142/163/36
usemtl Material.010
f 97/104/34 98/103/34 100/106/34 101/108/34 102/110/34 103/112/34 104/114/34 105/116/34 106/118/34 107/120/34 108/122/34 109/124/34 110/126/34 111/63/34 112/64/34 113/130/34 114/132/34 115/134/34 116/136/34 117/138/34 118/140/34 119/142/34 120/144/34 121/146/34 122/148/34 123/150/34 124/152/34 125/154/34 126/156/34 127/158/34 128/160/34 99/162/34
f 129/163/33 131/67/33 132/2/33 130/164/33
f 129/163/38 130/164/38 135/164/38 134/163/38
f 137/163/33 139/67/33 140/2/33 138/164/33
